<svg xmlns="http://www.w3.org/2000/svg" xmlns:xlink="http://www.w3.org/1999/xlink" xmlns:lucid="lucid" width="849.61" height="1252.5"><g transform="translate(-570.3888749604126 -60)" lucid:page-tab-id="0_0"><path d="M0 0h1870.87v1322.83H0z" fill="#fff"/><path d="M768 80c17.67 0 32 17.9 32 40s-14.33 40-32 40h-96c-17.67 0-32-17.9-32-40s14.33-40 32-40z" stroke="#5e5e5e" stroke-width="3" fill="#fff"/><use xlink:href="#a" transform="matrix(1,0,0,1,645,85) translate(41.111111111111114 39.65277777777778)"/><path d="M640 286c0-3.3 2.7-6 6-6h148c3.3 0 6 2.7 6 6v108c0 3.3-2.7 6-6 6H646c-3.3 0-6-2.7-6-6z" stroke="#5e5e5e" stroke-width="3" fill="#fff"/><use xlink:href="#b" transform="matrix(1,0,0,1,652,292) translate(2.0123456790123555 26.77777777777778)"/><use xlink:href="#c" transform="matrix(1,0,0,1,652,292) translate(71.08641975308642 26.77777777777778)"/><use xlink:href="#d" transform="matrix(1,0,0,1,652,292) translate(24.882716049382722 53.44444444444445)"/><use xlink:href="#e" transform="matrix(1,0,0,1,652,292) translate(97.53703703703704 53.44444444444445)"/><use xlink:href="#f" transform="matrix(1,0,0,1,652,292) translate(15.654320987654316 80.11111111111111)"/><use xlink:href="#g" transform="matrix(1,0,0,1,652,292) translate(66.20987654320987 80.11111111111111)"/><path d="M720 402.5V440" stroke="#5e5e5e" stroke-width="2" fill="none"/><path d="M721 402.53h-2v-1.03h2z" stroke="#5e5e5e" stroke-width=".05" fill="#5e5e5e"/><path d="M720 455.26L715.36 441h9.28z" stroke="#5e5e5e" stroke-width="2" fill="#5e5e5e"/><path d="M720 502.5v59.67" stroke="#5e5e5e" stroke-width="2" fill="none"/><path d="M719.93 501.5l1.07-.03v1.06h-2v-1.14z" stroke="#5e5e5e" stroke-width=".05" fill="#5e5e5e"/><path d="M720 577.43l-4.64-14.26h9.28z" stroke="#5e5e5e" stroke-width="2" fill="#5e5e5e"/><path d="M715.2 583.6c2.65-2 6.95-2 9.6 0l70.4 52.8c2.65 2 2.65 5.2 0 7.2l-70.4 52.8c-2.65 2-6.95 2-9.6 0l-70.4-52.8c-2.65-2-2.65-5.2 0-7.2z" stroke="#5e5e5e" stroke-width="3" fill="#fff"/><use xlink:href="#h" transform="matrix(1,0,0,1,645,585) translate(29.387716049382718 59.02777777777778)"/><path d="M740 480c0 11.05-8.95 20-20 20s-20-8.95-20-20 8.95-20 20-20 20 8.95 20 20z" stroke="#5e5e5e" stroke-width="3" fill="#fff"/><use xlink:href="#i" transform="matrix(1,0,0,1,705,465) translate(7.597592592592593 19.65277777777778)"/><path d="M720 162.5V260" stroke="#5e5e5e" stroke-width="2" fill="none"/><path d="M721 162.53h-2v-1.03h2z" stroke="#5e5e5e" stroke-width=".05" fill="#5e5e5e"/><path d="M720 275.26L715.36 261h9.28z" stroke="#5e5e5e" stroke-width="2" fill="#5e5e5e"/><path d="M715.2 763.6c2.65-2 6.95-2 9.6 0l70.4 52.8c2.65 2 2.65 5.2 0 7.2l-70.4 52.8c-2.65 2-6.95 2-9.6 0l-70.4-52.8c-2.65-2-2.65-5.2 0-7.2z" stroke="#5e5e5e" stroke-width="3" fill="#fff"/><use xlink:href="#j" transform="matrix(1,0,0,1,645,765) translate(39.20253086419753 59.02777777777778)"/><path d="M715.2 953.6c2.65-2 6.95-2 9.6 0l70.4 52.8c2.65 2 2.65 5.2 0 7.2l-70.4 52.8c-2.65 2-6.95 2-9.6 0l-70.4-52.8c-2.65-2-2.65-5.2 0-7.2z" stroke="#5e5e5e" stroke-width="3" fill="#fff"/><use xlink:href="#k" transform="matrix(1,0,0,1,645,955) translate(24.480308641975306 59.02777777777778)"/><path d="M640 1146c0-3.3 2.7-6 6-6h148c3.3 0 6 2.7 6 6v108c0 3.3-2.7 6-6 6H646c-3.3 0-6-2.7-6-6z" stroke="#5e5e5e" stroke-width="3" fill="#fff"/><use xlink:href="#b" transform="matrix(1,0,0,1,652,1152) translate(2.0123456790123555 26.77777777777778)"/><use xlink:href="#c" transform="matrix(1,0,0,1,652,1152) translate(71.08641975308642 26.77777777777778)"/><use xlink:href="#d" transform="matrix(1,0,0,1,652,1152) translate(9.481481481481481 53.44444444444445)"/><use xlink:href="#l" transform="matrix(1,0,0,1,652,1152) translate(82.1358024691358 53.44444444444445)"/><use xlink:href="#m" transform="matrix(1,0,0,1,652,1152) translate(44.01851851851852 80.11111111111111)"/><path d="M602.4 633.87l.7 2.64 1.78 1.8 2.64.7h32.87v2h-33.14l-3.42-.92-2.53-2.53-.9-3.42V542.1h2zM680 481h-72.48l-2.64.7-1.78 1.8-.7 2.63v34.65h-2v-34.9l.9-3.43 2.54-2.53 3.42-.92H680z" stroke="#5e5e5e" stroke-width=".05" fill="#5e5e5e"/><path d="M641.28 639.4l.28 1.6h-1.2v-2h1.1z" fill="#5e5e5e"/><path d="M641.3 639.4l.3 1.63h-1.26v-2.05h1.14zm-.9-.38V641h1.13l-.27-1.6.15-.36z" stroke="#5e5e5e" stroke-width=".05" fill="#5e5e5e"/><path d="M695.26 480L681 484.64v-9.28z" fill="#5e5e5e"/><path d="M698.5 480l-18.5 6v-12zm-16.5 3.26l10.03-3.26-10.03-3.26z" stroke="#5e5e5e" stroke-width=".05" fill="#5e5e5e"/><use xlink:href="#n" transform="matrix(1,0,0,1,585.0925786641163,520.7782385944068) translate(0 14.222222222222223)"/><path d="M602.4 813.87l.7 2.64 1.78 1.8 2.64.7h32.87v2h-33.14l-3.42-.92-2.53-2.53-.9-3.42v-53.46h2zm0-74.54h-2V658.5h2z" stroke="#5e5e5e" stroke-width=".05" fill="#5e5e5e"/><path d="M641.28 819.4l.28 1.6h-1.2v-2h1.1z" fill="#5e5e5e"/><path d="M641.3 819.4l.3 1.63h-1.26v-2.05h1.14zm-.9-.38V821h1.13l-.27-1.6.15-.36z" stroke="#5e5e5e" stroke-width=".05" fill="#5e5e5e"/><path d="M606.02 657.5h-9.27l4.64-14.26z" fill="#5e5e5e"/><path d="M607.4 658.5h-12.02l6-18.5zm-9.27-2h6.52l-3.26-10.03z" stroke="#5e5e5e" stroke-width=".05" fill="#5e5e5e"/><use xlink:href="#n" transform="matrix(1,0,0,1,585.0925786641163,739.3333333333334) translate(0 14.222222222222223)"/><path d="M720 700.33v41.84" stroke="#5e5e5e" stroke-width="2" fill="none"/><path d="M721 699.35v1h-2v-1.04z" stroke="#5e5e5e" stroke-width=".05" fill="#5e5e5e"/><path d="M720 757.43l-4.64-14.26h9.28z" stroke="#5e5e5e" stroke-width="2" fill="#5e5e5e"/><path d="M720 880.33v51.84" stroke="#5e5e5e" stroke-width="2" fill="none"/><path d="M721 879.35v1h-2v-1.04z" stroke="#5e5e5e" stroke-width=".05" fill="#5e5e5e"/><path d="M720 947.43l-4.64-14.26h9.28z" stroke="#5e5e5e" stroke-width="2" fill="#5e5e5e"/><path d="M721 1120h-2v-5.42h2zm0-26.75h-2v-22.92h2z" stroke="#5e5e5e" stroke-width=".05" fill="#5e5e5e"/><path d="M721 1069.35v1h-2v-1.04z" fill="#5e5e5e"/><path d="M721.02 1069.33v1.05H719v-1.1zm-2 1H721v-.95l-1.96-.05z" stroke="#5e5e5e" stroke-width=".05" fill="#5e5e5e"/><path d="M720 1135.26l-4.64-14.26h9.28z" fill="#5e5e5e"/><path d="M720 1138.5l-6-18.5h12zm-3.26-16.5l3.26 10.03 3.26-10.03z" stroke="#5e5e5e" stroke-width=".05" fill="#5e5e5e"/><use xlink:href="#n" transform="matrix(1,0,0,1,703.7037037037037,1093.2480493152057) translate(0 14.222222222222223)"/><path d="M908.85 641H799.6v-2h109.25zm131.15 0h-91.74v-2H1040z" stroke="#5e5e5e" stroke-width=".05" fill="#5e5e5e"/><path d="M799.64 641h-1.1l.18-.4-.28-1.6h1.2z" fill="#5e5e5e"/><path d="M799.66 641.02h-1.14l.17-.42-.3-1.63h1.26zm-1.2-2l.28 1.6-.15.36h1V639z" stroke="#5e5e5e" stroke-width=".05" fill="#5e5e5e"/><path d="M1055.26 640l-14.26 4.64v-9.28z" fill="#5e5e5e"/><path d="M1058.5 640l-18.5 6v-12zm-16.5 3.26l10.03-3.26-10.03-3.26z" stroke="#5e5e5e" stroke-width=".05" fill="#5e5e5e"/><use xlink:href="#o" transform="matrix(1,0,0,1,908.8513910263237,629.3333333333334) translate(0 14.222222222222223)"/><path d="M1140 640c0 22.1-17.9 40-40 40s-40-17.9-40-40 17.9-40 40-40 40 17.9 40 40z" stroke="#5e5e5e" stroke-width="3" fill="#fff"/><use xlink:href="#i" transform="matrix(1,0,0,1,1065,605) translate(27.592592592592595 39.65277777777778)"/><path d="M998.85 821H799.6v-2h199.25zm102.15-6.87l-.92 3.42-2.53 2.53-3.42.92h-55.87v-2h55.6l2.65-.7 1.8-1.8.7-2.63V700h2z" stroke="#5e5e5e" stroke-width=".05" fill="#5e5e5e"/><path d="M799.64 821h-1.1l.18-.4-.28-1.6h1.2z" fill="#5e5e5e"/><path d="M799.66 821.02h-1.14l.17-.42-.3-1.63h1.26zm-1.2-2l.28 1.6-.15.36h1V819z" stroke="#5e5e5e" stroke-width=".05" fill="#5e5e5e"/><path d="M1104.64 699h-9.28l4.64-14.26z" fill="#5e5e5e"/><path d="M1106 700h-12l6-18.5zm-9.26-2h6.52l-3.26-10.03z" stroke="#5e5e5e" stroke-width=".05" fill="#5e5e5e"/><use xlink:href="#o" transform="matrix(1,0,0,1,998.8513910263237,809.3333333333334) translate(0 14.222222222222223)"/><path d="M1024.6 1011h-225v-2h225zm76.4-6.87l-.92 3.42-2.53 2.53-3.42.92H1064v-2h29.87l2.64-.7 1.8-1.8.7-2.63V838.5h2z" stroke="#5e5e5e" stroke-width=".05" fill="#5e5e5e"/><path d="M799.64 1011h-1.1l.18-.4-.28-1.6h1.2z" fill="#5e5e5e"/><path d="M799.66 1011.02h-1.14l.17-.42-.3-1.63h1.26zm-1.2-2l.28 1.6-.15.36h1V1009z" stroke="#5e5e5e" stroke-width=".05" fill="#5e5e5e"/><path d="M1104.64 837.5h-9.28l4.64-14.26z" fill="#5e5e5e"/><path d="M1106 838.5h-12l6-18.5zm-9.26-2h6.52l-3.26-10.03z" stroke="#5e5e5e" stroke-width=".05" fill="#5e5e5e"/><use xlink:href="#p" transform="matrix(1,0,0,1,1024.60185881609,999.3333333333334) translate(0 14.222222222222223)"/><path d="M1142.5 640H1314c3.3 0 6 2.7 6 6v154" stroke="#5e5e5e" stroke-width="2" fill="none"/><path d="M1142.53 641h-1.1l.07-.98-.03-1.02h1.06z" stroke="#5e5e5e" stroke-width=".05" fill="#5e5e5e"/><path d="M1320 815.26l-4.64-14.26h9.28z" stroke="#5e5e5e" stroke-width="2" fill="#5e5e5e"/><path d="M1368 820c17.67 0 32 17.9 32 40s-14.33 40-32 40h-96c-17.67 0-32-17.9-32-40s14.33-40 32-40z" stroke="#5e5e5e" stroke-width="3" fill="#fff"/><g><use xlink:href="#q" transform="matrix(1,0,0,1,1245,825) translate(55.925925925925924 39.65277777777778)"/></g><path d="M1321 1295.63l-.92 3.42-2.53 2.53-3.42.92H725.87l-3.42-.92-2.53-2.53-.92-3.42v-33.13h2v32.87l.7 2.64 1.8 1.8 2.63.7h587.74l2.64-.7 1.8-1.8.7-2.63V920h2z" stroke="#5e5e5e" stroke-width=".05" fill="#5e5e5e"/><path d="M721 1262.53h-2v-1.03h2z" fill="#5e5e5e"/><path d="M721.02 1262.55H719v-1.08H721zm-2-1.02v.97H721v-.97z" stroke="#5e5e5e" stroke-width=".05" fill="#5e5e5e"/><path d="M1324.64 919h-9.28l4.64-14.26z" fill="#5e5e5e"/><path d="M1326 920h-12l6-18.5zm-9.26-2h6.52l-3.26-10.03z" stroke="#5e5e5e" stroke-width=".05" fill="#5e5e5e"/><defs><path fill="#333" d="M33 0v-248h34V0H33" id="r"/><path fill="#333" d="M190 0L58-211 59 0H30v-248h39L202-35l-2-213h31V0h-41" id="s"/><path fill="#333" d="M212-179c-10-28-35-45-73-45-59 0-87 40-87 99 0 60 29 101 89 101 43 0 62-24 78-52l27 14C228-24 195 4 139 4 59 4 22-46 18-125c-6-104 99-153 187-111 19 9 31 26 39 46" id="t"/><path fill="#333" d="M140-251c81 0 123 46 123 126C263-46 219 4 140 4 59 4 17-45 17-125s42-126 123-126zm0 227c63 0 89-41 89-101s-29-99-89-99c-61 0-89 39-89 99S79-25 140-24" id="u"/><g id="a"><use transform="matrix(0.06172839506172839,0,0,0.06172839506172839,0,0)" xlink:href="#r"/><use transform="matrix(0.06172839506172839,0,0,0.06172839506172839,6.172839506172839,0)" xlink:href="#s"/><use transform="matrix(0.06172839506172839,0,0,0.06172839506172839,22.160493827160494,0)" xlink:href="#r"/><use transform="matrix(0.06172839506172839,0,0,0.06172839506172839,28.333333333333332,0)" xlink:href="#t"/><use transform="matrix(0.06172839506172839,0,0,0.06172839506172839,44.32098765432099,0)" xlink:href="#r"/><use transform="matrix(0.06172839506172839,0,0,0.06172839506172839,50.49382716049383,0)" xlink:href="#u"/></g><path fill="#333" d="M137 0h-34L2-248h35l83 218 83-218h36" id="v"/><path fill="#333" d="M30 0v-248h187v28H63v79h144v27H63v87h162V0H30" id="w"/><g id="b"><use transform="matrix(0.06172839506172839,0,0,0.06172839506172839,0,0)" xlink:href="#v"/><use transform="matrix(0.06172839506172839,0,0,0.06172839506172839,14.814814814814813,0)" xlink:href="#u"/><use transform="matrix(0.06172839506172839,0,0,0.06172839506172839,32.09876543209876,0)" xlink:href="#t"/><use transform="matrix(0.06172839506172839,0,0,0.06172839506172839,48.08641975308641,0)" xlink:href="#w"/></g><path fill="#333" d="M30-248c87 1 191-15 191 75 0 78-77 80-158 76V0H30v-248zm33 125c57 0 124 11 124-50 0-59-68-47-124-48v98" id="x"/><path fill="#333" d="M30-248c118-7 216 8 213 122C240-48 200 0 122 0H30v-248zM63-27c89 8 146-16 146-99s-60-101-146-95v194" id="y"/><g id="c"><use transform="matrix(0.06172839506172839,0,0,0.06172839506172839,0,0)" xlink:href="#x"/><use transform="matrix(0.06172839506172839,0,0,0.06172839506172839,14.814814814814813,0)" xlink:href="#u"/><use transform="matrix(0.06172839506172839,0,0,0.06172839506172839,32.09876543209876,0)" xlink:href="#y"/><use transform="matrix(0.06172839506172839,0,0,0.06172839506172839,48.08641975308641,0)" xlink:href="#w"/></g><path fill="#333" d="M127-220V0H93v-220H8v-28h204v28h-85" id="z"/><path fill="#333" d="M233-177c-1 41-23 64-60 70L243 0h-38l-65-103H63V0H30v-248c88 3 205-21 203 71zM63-129c60-2 137 13 137-47 0-61-80-42-137-45v92" id="A"/><path fill="#333" d="M205 0l-28-72H64L36 0H1l101-248h38L239 0h-34zm-38-99l-47-123c-12 45-31 82-46 123h93" id="B"/><g id="d"><use transform="matrix(0.06172839506172839,0,0,0.06172839506172839,0,0)" xlink:href="#z"/><use transform="matrix(0.06172839506172839,0,0,0.06172839506172839,13.518518518518517,0)" xlink:href="#r"/><use transform="matrix(0.06172839506172839,0,0,0.06172839506172839,19.691358024691358,0)" xlink:href="#A"/><use transform="matrix(0.06172839506172839,0,0,0.06172839506172839,35.67901234567901,0)" xlink:href="#B"/><use transform="matrix(0.06172839506172839,0,0,0.06172839506172839,50.49382716049382,0)" xlink:href="#A"/></g><use transform="matrix(0.06172839506172839,0,0,0.06172839506172839,0,0)" xlink:href="#B" id="e"/><path fill="#333" d="M185-189c-5-48-123-54-124 2 14 75 158 14 163 119 3 78-121 87-175 55-17-10-28-26-33-46l33-7c5 56 141 63 141-1 0-78-155-14-162-118-5-82 145-84 179-34 5 7 8 16 11 25" id="C"/><path fill="#333" d="M232-93c-1 65-40 97-104 97C67 4 28-28 28-90v-158h33c8 89-33 224 67 224 102 0 64-133 71-224h33v155" id="D"/><g id="f"><use transform="matrix(0.06172839506172839,0,0,0.06172839506172839,0,0)" xlink:href="#C"/><use transform="matrix(0.06172839506172839,0,0,0.06172839506172839,14.814814814814813,0)" xlink:href="#D"/><use transform="matrix(0.06172839506172839,0,0,0.06172839506172839,30.80246913580247,0)" xlink:href="#B"/></g><path fill="#333" d="M197 0v-115H63V0H30v-248h33v105h134v-105h34V0h-34" id="E"/><path fill="#333" d="M33-154v-36h34v36H33zM33 0v-36h34V0H33" id="F"/><g id="g"><use transform="matrix(0.06172839506172839,0,0,0.06172839506172839,0,0)" xlink:href="#t"/><use transform="matrix(0.06172839506172839,0,0,0.06172839506172839,15.987654320987653,0)" xlink:href="#s"/><use transform="matrix(0.06172839506172839,0,0,0.06172839506172839,31.975308641975307,0)" xlink:href="#E"/><use transform="matrix(0.06172839506172839,0,0,0.06172839506172839,47.96296296296296,0)" xlink:href="#F"/></g><path fill="#333" d="M33 0v-38h34V0H33" id="G"/><g id="h"><use transform="matrix(0.06172839506172839,0,0,0.06172839506172839,0,0)" xlink:href="#x"/><use transform="matrix(0.06172839506172839,0,0,0.06172839506172839,14.814814814814813,0)" xlink:href="#C"/><use transform="matrix(0.06172839506172839,0,0,0.06172839506172839,29.629629629629626,0)" xlink:href="#t"/><use transform="matrix(0.06172839506172839,0,0,0.06172839506172839,45.61728395061728,0)" xlink:href="#r"/><use transform="matrix(0.06172839506172839,0,0,0.06172839506172839,51.79012345679012,0)" xlink:href="#t"/><use transform="matrix(0.06172839506172839,0,0,0.06172839506172839,67.77777777777777,0)" xlink:href="#u"/><use transform="matrix(0.06172839506172839,0,0,0.06172839506172839,85.06172839506172,0)" xlink:href="#G"/></g><use transform="matrix(0.06172839506172839,0,0,0.06172839506172839,0,0)" xlink:href="#B" id="i"/><path fill="#333" d="M30 0v-248h33v221h125V0H30" id="H"/><path fill="#333" d="M143 4C61 4 22-44 18-125c-5-107 100-154 193-111 17 8 29 25 37 43l-32 9c-13-25-37-40-76-40-61 0-88 39-88 99 0 61 29 100 91 101 35 0 62-11 79-27v-45h-74v-28h105v86C228-13 192 4 143 4" id="I"/><g id="j"><use transform="matrix(0.06172839506172839,0,0,0.06172839506172839,0,0)" xlink:href="#H"/><use transform="matrix(0.06172839506172839,0,0,0.06172839506172839,12.345679012345679,0)" xlink:href="#w"/><use transform="matrix(0.06172839506172839,0,0,0.06172839506172839,27.160493827160494,0)" xlink:href="#I"/><use transform="matrix(0.06172839506172839,0,0,0.06172839506172839,44.44444444444444,0)" xlink:href="#r"/><use transform="matrix(0.06172839506172839,0,0,0.06172839506172839,50.617283950617285,0)" xlink:href="#C"/><use transform="matrix(0.06172839506172839,0,0,0.06172839506172839,65.4320987654321,0)" xlink:href="#G"/></g><g id="k"><use transform="matrix(0.06172839506172839,0,0,0.06172839506172839,0,0)" xlink:href="#y"/><use transform="matrix(0.06172839506172839,0,0,0.06172839506172839,15.987654320987653,0)" xlink:href="#r"/><use transform="matrix(0.06172839506172839,0,0,0.06172839506172839,22.160493827160494,0)" xlink:href="#A"/><use transform="matrix(0.06172839506172839,0,0,0.06172839506172839,38.148148148148145,0)" xlink:href="#w"/><use transform="matrix(0.06172839506172839,0,0,0.06172839506172839,52.96296296296296,0)" xlink:href="#t"/><use transform="matrix(0.06172839506172839,0,0,0.06172839506172839,68.95061728395062,0)" xlink:href="#B"/><use transform="matrix(0.06172839506172839,0,0,0.06172839506172839,83.76543209876543,0)" xlink:href="#u"/></g><g id="l"><use transform="matrix(0.06172839506172839,0,0,0.06172839506172839,0,0)" xlink:href="#C"/><use transform="matrix(0.06172839506172839,0,0,0.06172839506172839,14.814814814814813,0)" xlink:href="#D"/><use transform="matrix(0.06172839506172839,0,0,0.06172839506172839,30.80246913580247,0)" xlink:href="#B"/></g><g id="m"><use transform="matrix(0.06172839506172839,0,0,0.06172839506172839,0,0)" xlink:href="#t"/><use transform="matrix(0.06172839506172839,0,0,0.06172839506172839,15.987654320987653,0)" xlink:href="#s"/><use transform="matrix(0.06172839506172839,0,0,0.06172839506172839,31.975308641975307,0)" xlink:href="#E"/></g><path fill="#333" d="M169-182c-1-43-94-46-97-3 18 66 151 10 154 114 3 95-165 93-204 36-6-8-10-19-12-30l50-8c3 46 112 56 116 5-17-69-150-10-154-114-4-87 153-88 188-35 5 8 8 18 10 28" id="J"/><path fill="#333" d="M25-224v-37h50v37H25zM25 0v-190h50V0H25" id="K"/><path fill="#333" d="M220-157c-53 9-28 100-34 157h-49v-107c1-27-5-49-29-50C55-147 81-57 75 0H25l-1-190h47c2 12-1 28 3 38 10-53 101-56 108 0 13-22 24-43 59-42 82 1 51 116 57 194h-49v-107c-1-25-5-48-29-50" id="L"/><g id="n"><use transform="matrix(0.04938271604938272,0,0,0.04938271604938272,0,0)" xlink:href="#J"/><use transform="matrix(0.04938271604938272,0,0,0.04938271604938272,11.851851851851853,0)" xlink:href="#K"/><use transform="matrix(0.04938271604938272,0,0,0.04938271604938272,16.790123456790127,0)" xlink:href="#L"/></g><path fill="#333" d="M175 0L67-191c6 58 2 128 3 191H24v-248h59L193-55c-6-58-2-129-3-193h46V0h-61" id="M"/><path fill="#333" d="M199 0l-22-63H83L61 0H9l90-248h61L250 0h-51zm-33-102l-36-108c-10 38-24 72-36 108h72" id="N"/><path fill="#333" d="M140-251c80 0 125 45 125 126S219 4 139 4C58 4 15-44 15-125s44-126 125-126zm-1 214c52 0 73-35 73-88 0-50-21-86-72-86-52 0-73 35-73 86s22 88 72 88" id="O"/><g id="o"><use transform="matrix(0.04938271604938272,0,0,0.04938271604938272,0,0)" xlink:href="#M"/><use transform="matrix(0.04938271604938272,0,0,0.04938271604938272,12.790123456790125,0)" xlink:href="#N"/><use transform="matrix(0.04938271604938272,0,0,0.04938271604938272,25.58024691358025,0)" xlink:href="#O"/></g><path fill="#333" d="M101-320c28 0 65 44 74 0h23c0 29-10 51-39 51-28-1-66-45-74 0H61c2-28 9-52 40-51zM199 0l-22-63H83L61 0H9l90-248h61L250 0h-51zm-33-102l-36-108c-10 38-24 72-36 108h72" id="P"/><g id="p"><use transform="matrix(0.04938271604938272,0,0,0.04938271604938272,0,0)" xlink:href="#M"/><use transform="matrix(0.04938271604938272,0,0,0.04938271604938272,12.790123456790125,0)" xlink:href="#P"/><use transform="matrix(0.04938271604938272,0,0,0.04938271604938272,25.58024691358025,0)" xlink:href="#O"/></g><path fill="#333" d="M63-220v92h138v28H63V0H30v-248h175v28H63" id="Q"/><path fill="#333" d="M240 0l2-218c-23 76-54 145-80 218h-23L58-218 59 0H30v-248h44l77 211c21-75 51-140 76-211h43V0h-30" id="R"/><g id="q"><use transform="matrix(0.06172839506172839,0,0,0.06172839506172839,0,0)" xlink:href="#Q"/><use transform="matrix(0.06172839506172839,0,0,0.06172839506172839,13.518518518518517,0)" xlink:href="#r"/><use transform="matrix(0.06172839506172839,0,0,0.06172839506172839,19.691358024691358,0)" xlink:href="#R"/></g></defs></g></svg>